<?xml version="1.0" encoding="utf-8"?>
<!-- Generator: Adobe Illustrator 25.3.1, SVG Export Plug-In . SVG Version: 6.00 Build 0)  -->
<svg version="1.1" id="Layer_1" xmlns="http://www.w3.org/2000/svg" xmlns:xlink="http://www.w3.org/1999/xlink" x="0px" y="0px"
	 viewBox="0 0 256 256" enable-background="new 0 0 256 256" xml:space="preserve">
<circle fill="#CE4B37" cx="128" cy="128" r="128"/>
<path fill="#B3392D" d="M256.1,128c0-70.7-57.3-128-128-128v256C198.8,256,256.1,198.7,256.1,128z"/>
<path fill="#FFFFFF" d="M155.6,156.5c0.3-1.5,0.4-3.1,1-4.4c7.5-14.8,8.2-30.7,7.5-46.9c-0.4-9.6,2.8-18.9,2.8-28.4
	c0-3.6,0.3-7.3-0.2-10.8c-0.3-2.5-1.8-4.9-4.8-4.8c-3.3,0.1-3.7,2.7-4.1,5.3c-1.1,8.7-2.2,17.4-3.5,26.1c-0.3,1.9-0.2,4.9-3.2,4.4
	c-2.2-0.4-1.8-2.8-1.6-4.8c1.1-10.8,2-21.6,2.9-32.4c0.1-1.7,0.2-3.4,0.2-5.1c-0.1-3.8-2-6.4-5.7-6.7c-3.9-0.3-5.1,2.7-5.5,6
	c-1.1,10.4-2.2,20.9-3.3,31.3c-0.1,0.9,0,2-0.2,2.8c-0.5,1.7-0.2,4.4-3,3.8c-2.1-0.4-2-2.4-1.9-4.2c0.4-7,0.8-14.1,1-21.1
	c0.3-6.7,0.4-13.3,0.7-20c0.2-4.3-0.5-8.2-5.6-8.2c-4.4,0-5.6,3.6-5.9,7.7c-0.7,13.3-1.6,26.7-2.5,40c-0.1,2.1,0.7,5.3-2.6,5.3
	c-3.3,0-2.7-3.1-2.8-5.3c-0.2-10.5-0.3-21-0.6-31.5c-0.1-3.5,0.5-8.3-4.6-8.3c-5-0.1-6.1,3.9-6.3,8.5c-0.6,18.3,0.4,36.6-1.2,54.9
	c-0.2,1.9,0.9,4.8-2,5.3c-2.4,0.4-3.1-2.3-4.1-4.1c-2.1-3.8-4.2-7.7-6.7-11.3c-2.1-3.1-5-5.3-8.9-5.6c-2.4-0.2-4.6,0.3-6.1,2.4
	c-1.5,2.1-0.3,4.1,0.9,5.8c3.6,5.2,6.6,10.8,8.6,16.7c4.2,12.4,11.8,22.2,21.9,30.1c6,4.7,7.2,10.4,6.5,17.2l-0.4,89.3
	c5,0.6,10.1,0.9,15.3,0.9c10.5,0,20.6-1.3,30.4-3.6C157.4,233.4,153.7,167.3,155.6,156.5z"/>
<g>
	<path fill="#FFFFFF" stroke="#FFFFFF" stroke-width="0.7" stroke-miterlimit="10" d="M206.8,153.4c1.4-5.1,1.4-5.7-2.2-5.7v-0.6
		h9.4v0.6c-2.7,0-4.2,0.7-5.5,5.2l-7.8,27.3l-9.2-23.7l-8.6,23.7h-0.2l-8.4-29.9c-0.4-1.6-1.6-2.6-4.1-2.6v-0.6h9.4v0.6
		c-2.5,0-3.4,0.4-2.9,2.5l6.7,24.6l8.4-23.7h0.1l8.8,23.7L206.8,153.4z"/>
	<path fill="#FFFFFF" stroke="#FFFFFF" stroke-width="0.7" stroke-miterlimit="10" d="M222.1,149.9c0-1.7-0.7-2.2-4-2.2v-0.6h10.4
		v0.6c-3.3,0-4,0.5-4,2.2v25.7c0,1.7,0.7,2.4,4,2.4v0.6h-10.4V178c3.3,0,4-0.7,4-2.4V149.9z"/>
</g>
</svg>
